<svg xmlns="http://www.w3.org/2000/svg" viewBox="0 0 64 64" role="img" aria-label="Apple TV+">
  <rect width="64" height="64" rx="18" fill="#111"/>
  <path d="M24.8 22.5c1.8-2.4 4.4-2.7 5.1-2.8.2 2.6-1.4 4.8-2.9 6.1-1.5 1.2-3.2 2.1-5.2 1.9-.3-2 .8-4 3-5.2Z" fill="#fff"/>
  <path d="M44 40.3c-1.1 2.5-1.7 3.6-3.2 5.8-2 2.9-4.8 6.5-8.3 6.5-3.1 0-3.9-2-8.1-2-4.2 0-5.1 2-8 2-3.4 0-6-3.3-8-6.2-5.5-8-6.1-17.4-2.7-22.4 2.4-3.6 6.2-5.7 9.8-5.7 3.7 0 6.1 2 9.2 2 3 0 4.8-2 9.1-2 3.3 0 6.8 1.8 9.2 4.9-8.1 4.4-6.8 16 1 17.1Z" fill="#fff" transform="scale(.55) translate(12 18)"/>
  <text x="37" y="39" font-family="Arial, Helvetica, sans-serif" font-size="14" font-weight="900" fill="#fff">tv+</text>
</svg>
